<svg width="1000" height="768" xmlns="http://www.w3.org/2000/svg">

 <style type="text/css">.st0{fill:#FFFFFF;}
	.st1{fill:url(#Inner_Circle_1_);}</style>
 <g class="currentLayer">
  <title>Layer 1</title>
  <g id="svg_5">
   <path id="svg_6" d="m271.397583,276.387665c16.799988,18.699951 49,51 61.5,61.899963c12.5,10.900024 43.700012,39.900024 51.400024,47.799988c7.699951,7.900024 16.799988,22.400024 21.099976,24.400024c4.299988,2 57.099976,-1 64.5,-0.299988c7.5,0.799988 36.200012,10.399963 51.900024,14c15.699951,3.700012 61.899963,15.099976 81.299988,12.599976c19.399963,-2.5 70.700012,-25.299988 83.899963,-31.5c13.300049,-6.200012 58,-24.099976 76.900146,-31.200012c18.899902,-7.099976 35,-11.899963 51.699951,-21.799988c16.699951,-9.799988 39.300049,-19.5 50.599854,-21.399963c11.300049,-1.800049 23.400146,-1.600037 28.5,2.5c5.100098,4.099976 4.900146,16.099976 4.100098,23.599976c-0.800049,7.5 -5.800049,16.5 -10.399902,17c-4.600098,0.5 -9.700195,-3.5 -7.300049,-6.799988c2.399902,-3.299988 -1,-9.200012 -8.800049,-7.5c-7.699951,1.700012 -24.600098,4.399963 -30.899902,6.799988c-6.300049,2.400024 -18.600098,14.200012 -29.800049,19.5c-11.100098,5.400024 -55.300049,27.900024 -76.100037,42.900024c-20.700012,14.899963 -60.600037,39.5 -69.300049,45.099976c-8.599976,5.599976 -11.5,4.299988 -27.099976,13.799988c-15.600037,9.399994 -32.5,21.800018 -46.100037,26.899994c-13.699951,5.099976 -35.399963,10.900024 -35.399963,10.900024s16.899963,6.800049 27.5,6.400024c10.599976,-0.400024 48.799988,5.599976 65.299988,11.400024c16.5,5.799927 48,41.799927 59.400024,43.5c11.399963,1.699951 12.299988,7.399902 27.299988,-0.600098c14.900024,-8 33.099915,-17.199951 54.399963,-24c21.400146,-6.799927 49.300049,-18.5 53.900146,-19c4.599854,-0.5 21.399902,12.300049 40,17.300049c18.599854,5 29.799805,9.199951 35.799805,9.300049c6,0.099976 25.600098,1.199951 27.900146,7.5c2.399902,6.299927 7.5,10.399902 2.199951,12.299927c-5.300049,2 -4.100098,5.099976 -9.5,3.5c-5.399902,-1.599976 -11.100098,-4.199951 -17.600098,4.200073c-6.399902,8.399902 -14.199951,10.099976 -22.299805,10.799927c-8.100098,0.700073 -13.5,-0.900024 -23.600098,-5.5c-10.100098,-4.599976 -26.399902,-12.900024 -33.699951,-10.099976c-7.300049,2.800049 -34.5,35.699951 -61.400146,46.900024c-26.899902,11.299927 -55.399902,18.400024 -72.099915,15.099976c-16.799988,-3.300049 -42.5,-17.599976 -52.200012,-21.099976c-9.700012,-3.599976 -28.5,-2.5 -28.5,-2.5s44.400024,32.400024 61.400024,39.199951c16.899963,6.800049 56.799988,11 71.600098,9.099976c14.799805,-2 40,-11.399902 49.399902,-5.399902c9.5,6 12.300049,7.299927 14,15.099976c1.699951,7.700073 11.600098,24.400024 15.899902,26.400024c4.300049,2 18.900146,12.099976 15.600098,19.300049c-3.300049,7.199951 -19.899902,17 -28.600098,13.099854c-8.599854,-3.899902 -16.5,-15.399902 -23.899902,-22.199951c-7.300049,-6.800049 -13.100098,-9.5 -24.600098,-5.099976c-11.599854,4.299927 -52.099915,20.700073 -71.19989,20.700073c-19.200012,0 -61.900024,-5.5 -75.400024,-16c-13.5,-10.5 -56.400024,-38.700073 -70,-52.700073c-13.599976,-14 -24.5,-30.300049 -32.400024,-41.700073c-7.899963,-11.399902 -4.699951,-22.199951 -12.599976,-24c-7.900024,-1.799927 -67.099976,-13.099976 -87.599976,-19.799927c-20.5,-6.700073 -51.800049,-29.599976 -61.5,-42.800049c-9.700012,-13.099976 -17.700012,-18.5 -23.300049,-17.599976c-5.599976,0.900024 -24.699951,14 -37.899963,10.599976c-13.200012,-3.400024 -24,-25.699951 -30.799988,-47.100006c-6.800049,-21.399963 -8.5,-29.099976 -2.800049,-36.099976c5.800049,-6.900024 16.300049,-20.5 16.300049,-20.5s-22,-33.299988 -36.700012,-56.599976c-14.700012,-23.200012 -53.200012,-59 -66,-86.599976c-12.700012,-27.5 -53.899994,-86.300034 -73.29998,-112.500015c-19.400024,-26.199982 -37.900024,-56.400002 -45.900024,-61.799995c-8,-5.399994 -31,-12.299988 -32.299988,-19c-1.299988,-6.700012 -1.600006,-13.799988 2.600006,-15.399994c4.199982,-1.600006 15.299988,12.199982 17.299988,7.899994c2,-4.299988 -13.5,-20.100006 -18.200012,-23.100006c-4.699982,-3 -24.699982,-33.799988 -22.299988,-37.099974c2.399994,-3.300018 9.299988,-7.100037 12.5,-8.300018c3.100006,-1.199982 8.5,0.399994 12.100006,0.300018c3.5,-0.100037 12.199982,-5.800018 13.799988,-1.600037c1.600006,4.200012 20.300018,31.900023 23.100006,39.20001c2.800018,7.300018 18.600006,24.100006 27.100006,34.100006c8.5,10 11.700012,18.399994 20.200012,28.299988c8.499992,10.000008 53.199974,59.000008 75.399986,83.000038c22.199982,24.199951 51.600006,51.499939 69.999969,72.09996z" class="st0"/>
  </g>
 </g>
 <g>
  <title>Layer 2</title>
  <rect fill="none" y="0" x="0" height="100%" width="100%" id="backgroundrect"/>
 </g>
 <g>
  <title>background</title>
  <rect fill="none" id="canvas_background" height="770" width="1002" y="-1" x="-1"/>
 </g>
</svg>