<?xml version="1.0" encoding="utf-8"?>
<!-- Generator: Adobe Illustrator 25.3.1, SVG Export Plug-In . SVG Version: 6.00 Build 0)  -->
<svg version="1.1" id="Layer_1" xmlns="http://www.w3.org/2000/svg" xmlns:xlink="http://www.w3.org/1999/xlink" x="0px" y="0px"
	 viewBox="0 0 23 23" style="enable-background:new 0 0 23 23;" xml:space="preserve">
<style type="text/css">
	.st0{fill:#838586;}
</style>
<g>
	<g>
		<path class="st0" d="M11.5,3.4c-2.6,0-4.7,2.1-4.7,4.7v2.7c0,0,0,0.1-0.1,0.1C6.4,11,6.2,11.1,6,11.2c-0.2,0.1-0.4,0.3-0.4,0.6V18
			c0,0.2,0.2,0.5,0.4,0.6c1.7,0.7,3.6,1,5.5,1s3.7-0.4,5.5-1c0.2-0.1,0.4-0.3,0.4-0.6v-6.2c0-0.2-0.2-0.5-0.4-0.6
			c-0.2-0.1-0.4-0.1-0.7-0.2c0,0-0.1-0.1-0.1-0.1V8.1C16.2,5.5,14.1,3.4,11.5,3.4z M10.2,13.6c0-0.7,0.6-1.3,1.3-1.3
			c0.7,0,1.3,0.6,1.3,1.3c0,0.5-0.3,0.9-0.6,1.1v2.1c0,0.4-0.3,0.6-0.6,0.6c-0.4,0-0.6-0.3-0.6-0.6v-2.1
			C10.5,14.5,10.2,14.1,10.2,13.6z M14.6,8.1v2.3c-1-0.2-2.1-0.3-3.1-0.3c-1,0-2.1,0.1-3.1,0.3V8.1C8.4,6.4,9.8,5,11.5,5
			C13.2,5,14.6,6.4,14.6,8.1z"/>
	</g>
</g>
</svg>
