<?xml version="1.0" encoding="utf-8"?>
<!-- Generator: Adobe Illustrator 25.3.1, SVG Export Plug-In . SVG Version: 6.00 Build 0)  -->
<svg version="1.1" id="Layer_1" xmlns="http://www.w3.org/2000/svg" xmlns:xlink="http://www.w3.org/1999/xlink" x="0px" y="0px"
	 viewBox="0 0 23 23" style="enable-background:new 0 0 23 23;" xml:space="preserve">
<style type="text/css">
	.st0{fill:#838586;}
</style>
<g>
	<g>
		<path class="st0" d="M11.5,3.2C8.8,3.2,6.6,5.3,6.6,8v2.8c0,0,0,0.1-0.1,0.1c-0.3,0.1-0.5,0.2-0.7,0.2c-0.2,0.1-0.4,0.3-0.4,0.6
			v6.4c0,0.3,0.2,0.5,0.4,0.6c1.8,0.7,3.7,1.1,5.6,1.1s3.8-0.4,5.6-1.1c0.2-0.1,0.4-0.4,0.4-0.6v-6.4c0-0.3-0.2-0.5-0.4-0.6
			c-0.2-0.1-0.4-0.2-0.7-0.2c0,0-0.1-0.1-0.1-0.1V8C16.4,5.3,14.2,3.2,11.5,3.2z M10.2,13.7c0-0.7,0.6-1.3,1.3-1.3
			c0.7,0,1.3,0.6,1.3,1.3c0,0.5-0.3,0.9-0.7,1.1V17c0,0.4-0.3,0.7-0.7,0.7c-0.4,0-0.7-0.3-0.7-0.7v-2.2
			C10.4,14.6,10.2,14.2,10.2,13.7z M14.7,8v2.4c-1.1-0.2-2.1-0.3-3.2-0.3c-1.1,0-2.2,0.1-3.2,0.3V8c0-1.8,1.4-3.2,3.2-3.2
			C13.3,4.8,14.7,6.3,14.7,8z"/>
	</g>
</g>
</svg>
