<?xml version="1.0" encoding="utf-8"?>
<!-- Generator: Adobe Illustrator 21.1.0, SVG Export Plug-In . SVG Version: 6.00 Build 0)  -->
<svg version="1.1" id="Layer_1" xmlns="http://www.w3.org/2000/svg" xmlns:xlink="http://www.w3.org/1999/xlink" x="0px" y="0px"
	 viewBox="0 0 28.35 28.35" style="enable-background:new 0 0 28.35 28.35;" xml:space="preserve">
<style type="text/css">
	.st0{clip-path:url(#SVGID_5_);}
	.st1{clip-path:url(#SVGID_6_);}
	.st2{clip-path:url(#SVGID_7_);}
	.st3{clip-path:url(#SVGID_8_);fill:#3E82F1;}
	.st4{clip-path:url(#SVGID_13_);}
	.st5{clip-path:url(#SVGID_14_);}
	.st6{clip-path:url(#SVGID_15_);}
	.st7{clip-path:url(#SVGID_16_);fill:#32A753;}
	.st8{clip-path:url(#SVGID_21_);}
	.st9{clip-path:url(#SVGID_22_);}
	.st10{clip-path:url(#SVGID_23_);}
	.st11{clip-path:url(#SVGID_24_);fill:#F9BB00;}
	.st12{clip-path:url(#SVGID_29_);}
	.st13{clip-path:url(#SVGID_30_);}
	.st14{clip-path:url(#SVGID_31_);}
	.st15{clip-path:url(#SVGID_32_);fill:#E74133;}
</style>
<g>
	<g>
		<defs>
			<rect id="SVGID_1_" x="-8.44" y="-8.6" width="46" height="46"/>
		</defs>
		<defs>
			<path id="SVGID_2_" d="M23.2,14.6c0-0.64-0.06-1.25-0.16-1.84h-8.48v3.48h4.84c-0.21,1.12-0.84,2.08-1.8,2.72v2.26h2.91
				C22.22,19.65,23.2,17.34,23.2,14.6L23.2,14.6L23.2,14.6z M23.2,14.6"/>
		</defs>
		<defs>
			<path id="SVGID_3_" d="M-9.44-9.6h48v48h-48V-9.6z M-9.44-9.6"/>
		</defs>
		<defs>
			<rect id="SVGID_4_" x="-8.44" y="-754.6" width="612" height="792"/>
		</defs>
		<clipPath id="SVGID_5_">
			<use xlink:href="#SVGID_1_"  style="overflow:visible;"/>
		</clipPath>
		<clipPath id="SVGID_6_" class="st0">
			<use xlink:href="#SVGID_2_"  style="overflow:visible;"/>
		</clipPath>
		<clipPath id="SVGID_7_" class="st1">
			<use xlink:href="#SVGID_3_"  style="overflow:visible;"/>
		</clipPath>
		<clipPath id="SVGID_8_" class="st2">
			<use xlink:href="#SVGID_4_"  style="overflow:visible;"/>
		</clipPath>
		<rect x="9.56" y="7.76" class="st3" width="18.64" height="18.46"/>
	</g>
	<g>
		<defs>
			<rect id="SVGID_9_" x="-8.44" y="-8.6" width="46" height="46"/>
		</defs>
		<defs>
			<path id="SVGID_10_" d="M14.56,23.4c2.43,0,4.47-0.81,5.96-2.18l-2.91-2.26c-0.81,0.54-1.84,0.86-3.05,0.86
				c-2.34,0-4.33-1.58-5.04-3.71H6.52v2.33C8,21.38,11.04,23.4,14.56,23.4L14.56,23.4L14.56,23.4z M14.56,23.4"/>
		</defs>
		<defs>
			<path id="SVGID_11_" d="M-9.44-9.6h48v48h-48V-9.6z M-9.44-9.6"/>
		</defs>
		<defs>
			<rect id="SVGID_12_" x="-8.44" y="-754.6" width="612" height="792"/>
		</defs>
		<clipPath id="SVGID_13_">
			<use xlink:href="#SVGID_9_"  style="overflow:visible;"/>
		</clipPath>
		<clipPath id="SVGID_14_" class="st4">
			<use xlink:href="#SVGID_10_"  style="overflow:visible;"/>
		</clipPath>
		<clipPath id="SVGID_15_" class="st5">
			<use xlink:href="#SVGID_11_"  style="overflow:visible;"/>
		</clipPath>
		<clipPath id="SVGID_16_" class="st6">
			<use xlink:href="#SVGID_12_"  style="overflow:visible;"/>
		</clipPath>
		<rect x="1.52" y="11.11" class="st7" width="24" height="17.29"/>
	</g>
	<g>
		<defs>
			<rect id="SVGID_17_" x="-8.44" y="-8.6" width="46" height="46"/>
		</defs>
		<defs>
			<path id="SVGID_18_" d="M9.53,16.11c-0.18-0.54-0.28-1.12-0.28-1.71c0-0.59,0.1-1.17,0.28-1.71v-2.33H6.52
				c-0.61,1.21-0.96,2.59-0.96,4.04s0.35,2.83,0.96,4.04L9.53,16.11L9.53,16.11L9.53,16.11z M9.53,16.11"/>
		</defs>
		<defs>
			<path id="SVGID_19_" d="M-9.44-9.6h48v48h-48V-9.6z M-9.44-9.6"/>
		</defs>
		<defs>
			<rect id="SVGID_20_" x="-8.44" y="-754.6" width="612" height="792"/>
		</defs>
		<clipPath id="SVGID_21_">
			<use xlink:href="#SVGID_17_"  style="overflow:visible;"/>
		</clipPath>
		<clipPath id="SVGID_22_" class="st8">
			<use xlink:href="#SVGID_18_"  style="overflow:visible;"/>
		</clipPath>
		<clipPath id="SVGID_23_" class="st9">
			<use xlink:href="#SVGID_19_"  style="overflow:visible;"/>
		</clipPath>
		<clipPath id="SVGID_24_" class="st10">
			<use xlink:href="#SVGID_20_"  style="overflow:visible;"/>
		</clipPath>
		<rect x="0.56" y="5.35" class="st11" width="13.96" height="18.08"/>
	</g>
	<g>
		<defs>
			<rect id="SVGID_25_" x="-8.44" y="-8.6" width="46" height="46"/>
		</defs>
		<defs>
			<path id="SVGID_26_" d="M14.56,8.98c1.32,0,2.51,0.45,3.44,1.35l2.58-2.58c-1.56-1.45-3.6-2.34-6.02-2.34
				c-3.52,0-6.56,2.02-8.04,4.96l3.01,2.33C10.23,10.56,12.22,8.98,14.56,8.98L14.56,8.98L14.56,8.98z M14.56,8.98"/>
		</defs>
		<defs>
			<path id="SVGID_27_" d="M-9.44-9.6h48v48h-48V-9.6z M-9.44-9.6"/>
		</defs>
		<defs>
			<rect id="SVGID_28_" x="-8.44" y="-754.6" width="612" height="792"/>
		</defs>
		<clipPath id="SVGID_29_">
			<use xlink:href="#SVGID_25_"  style="overflow:visible;"/>
		</clipPath>
		<clipPath id="SVGID_30_" class="st12">
			<use xlink:href="#SVGID_26_"  style="overflow:visible;"/>
		</clipPath>
		<clipPath id="SVGID_31_" class="st13">
			<use xlink:href="#SVGID_27_"  style="overflow:visible;"/>
		</clipPath>
		<clipPath id="SVGID_32_" class="st14">
			<use xlink:href="#SVGID_28_"  style="overflow:visible;"/>
		</clipPath>
		<rect x="1.52" y="0.4" class="st15" width="24.06" height="17.29"/>
	</g>
</g>
</svg>
